<svg enable-background="new 0 0 24 24" height="512" viewBox="0 0 24 24" width="512" xmlns="http://www.w3.org/2000/svg"><path d="m21.5 6h-.5v4.75c0 2.344-1.906 4.25-4.25 4.25h-11.75v2.25c0 1.517 1.233 2.75 2.75 2.75h1.25v2.25c0 .31.189.587.479.699.087.034.179.051.271.051.206 0 .408-.085.553-.243l2.527-2.757h8.67c1.517 0 2.75-1.233 2.75-2.75v-8.5c0-1.517-1.233-2.75-2.75-2.75z"/><path d="m16.75 0h-14.5c-1.24 0-2.25 1.01-2.25 2.25v8.5c0 1.24 1.01 2.25 2.25 2.25h14.5c1.24 0 2.25-1.01 2.25-2.25v-8.5c0-1.24-1.01-2.25-2.25-2.25zm.25 4.44-6.74 3.27c-.24.12-.5.18-.76.18s-.52-.06-.76-.18l-6.74-3.27v-1.66l7.39 3.58c.07.04.15.04.22 0l7.39-3.58z"/></svg>